<svg xmlns="http://www.w3.org/2000/svg" viewBox="0 0 2145.3 1364" fill="none">
    <path transform="translate(0, 1011) scale(1, -1)" d="M97.4095458984375 -9.277099609375Q65.7469482421875 -9.277099609375 44.8614501953125 5.55419921875Q23.9759521484375 20.385498046875 18.74102783203125 45.9095458984375Q13.506103515625 71.43359375 27.9759521484375 103.373291015625L277.289306640625 639.2049560546875Q295.397705078125 678.4217529296875 321.560302734375 696.3494262695312Q347.722900390625 714.277099609375 381.939697265625 714.277099609375Q415.7950439453125 714.277099609375 441.63836669921875 696.3494262695312Q467.481689453125 678.4217529296875 485.590087890625 639.2049560546875L735.264892578125 103.373291015625Q750.7347412109375 70.7950439453125 746.1383666992188 45.09027099609375Q741.5419921875 19.385498046875 721.4757690429688 5.05419921875Q701.4095458984375 -9.277099609375 670.7469482421875 -9.277099609375Q631.2530517578125 -9.277099609375 609.6868286132812 9.01202392578125Q588.12060546875 27.3011474609375 571.01220703125 67.43359375L516.8675537109375 193.5301513671875L587.4698486328125 142.56640625H175.048095703125L245.650390625 193.5301513671875L191.8671875 67.43359375Q174.3973388671875 26.939697265625 155.2889404296875 8.831298828125Q136.1805419921875 -9.277099609375 97.4095458984375 -9.277099609375ZM379.939697265625 513.0003662109375 264.20458984375 236.1927490234375 235.650390625 284.156494140625H526.8675537109375L498.6748046875 236.1927490234375L381.939697265625 513.0003662109375Z" fill="currentColor"/>
    <path transform="translate(762.5, 1011) scale(1, -1)" d="M143.048095703125 -9.277099609375Q98.6385498046875 -9.277099609375 75.114501953125 13.92767333984375Q51.5904541015625 37.1324462890625 51.5904541015625 80.9034423828125V411.6507568359375Q51.5904541015625 455.4217529296875 74.29522705078125 478.44580078125Q97 501.4698486328125 138.77099609375 501.4698486328125Q180.5419921875 501.4698486328125 202.927490234375 478.44580078125Q225.31298828125 455.4217529296875 225.31298828125 411.6507568359375V371H215.31298828125Q224.8431396484375 431 266.481689453125 466.15057373046875Q308.1202392578125 501.3011474609375 370.373291015625 503.4698486328125Q399.035888671875 504.1927490234375 413.4515380859375 488.5Q427.8671875 472.8072509765625 428.590087890625 431.4820556640625Q429.31298828125 394.9881591796875 414.21661376953125 374.06048583984375Q399.1202392578125 353.1328125 357.43359375 348.855712890625L334.156494140625 346.855712890625Q281.4576416015625 342.1328125 257.16241455078125 317.6568603515625Q232.8671875 293.180908203125 232.8671875 245.12060546875V80.9034423828125Q232.8671875 37.1324462890625 209.8431396484375 13.92767333984375Q186.819091796875 -9.277099609375 143.048095703125 -9.277099609375Z" fill="currentColor"/>
    <path transform="translate(1196.0, 1011) scale(1, -1)" d="M239.0240478515625 -11.277099609375Q142.614501953125 -11.277099609375 97.10247802734375 40.37347412109375Q51.5904541015625 92.0240478515625 51.5904541015625 196.156494140625V624.4580078125Q51.5904541015625 668.22900390625 74.614501953125 691.2530517578125Q97.6385498046875 714.277099609375 140.4095458984375 714.277099609375Q183.1805419921875 714.277099609375 206.38531494140625 691.2530517578125Q229.590087890625 668.22900390625 229.590087890625 624.4580078125V201.5179443359375Q229.590087890625 165.09619140625 244.30096435546875 148.20458984375Q259.0118408203125 131.31298828125 281.602294921875 131.31298828125Q288.9637451171875 131.31298828125 296.602294921875 132.77081298828125Q304.2408447265625 134.2286376953125 312.5179443359375 134.590087890625Q330.3492431640625 135.31298828125 338.5419921875 122.30096435546875Q346.7347412109375 109.2889404296875 346.7347412109375 68.7950439453125Q346.7347412109375 34.216796875 332.9034423828125 16.70477294921875Q319.0721435546875 -0.8072509765625 290.3251953125 -6.3614501953125Q282.2408447265625 -7.3614501953125 267.09027099609375 -9.31927490234375Q251.939697265625 -11.277099609375 239.0240478515625 -11.277099609375Z" fill="currentColor"/>
    <path transform="translate(1543.8, 1011) scale(1, -1)" d="M300.77099609375 -11.277099609375Q219.0240478515625 -11.277099609375 157.9156494140625 19.722900390625Q96.8072509765625 50.722900390625 62.93377685546875 108.8614501953125Q29.060302734375 167 29.060302734375 246.277099609375Q29.060302734375 305.9156494140625 48.15667724609375 353.37347412109375Q67.2530517578125 400.831298828125 103.12652587890625 434.65057373046875Q139 468.4698486328125 189.15057373046875 485.9698486328125Q239.3011474609375 503.4698486328125 300.77099609375 503.4698486328125Q383.156494140625 503.4698486328125 443.94561767578125 472.4698486328125Q504.7347412109375 441.4698486328125 538.6082153320312 383.831298828125Q572.481689453125 326.1927490234375 572.481689453125 246.277099609375Q572.481689453125 186.6385498046875 553.3853149414062 139.0Q534.2889404296875 91.3614501953125 498.41546630859375 57.54217529296875Q462.5419921875 23.722900390625 412.39141845703125 6.222900390625Q362.2408447265625 -11.277099609375 300.77099609375 -11.277099609375ZM300.77099609375 120.1202392578125Q328.1927490234375 120.1202392578125 348.84942626953125 133.33111572265625Q369.506103515625 146.5419921875 381.49407958984375 174.37939453125Q393.4820556640625 202.216796875 393.4820556640625 246.277099609375Q393.4820556640625 312.8675537109375 367.46392822265625 342.47003173828125Q341.44580078125 372.072509765625 300.77099609375 372.072509765625Q273.98779296875 372.072509765625 253.0118408203125 359.0423583984375Q232.035888671875 346.01220703125 220.04791259765625 318.49407958984375Q208.0599365234375 290.9759521484375 208.0599365234375 246.277099609375Q208.0599365234375 180.048095703125 234.07806396484375 150.08416748046875Q260.09619140625 120.1202392578125 300.77099609375 120.1202392578125Z" fill="currentColor"/>
</svg>
